fd_10_states
version=1
nRows=15
nColumns=17
inDegrees=yes

# SIMM Motion File Header:
name fd_10_states
datacolumns 17
datarows 15
otherdata 1
range 0.366094 0.374389
endheader
time	/jointset/r_shoulder/r_shoulder_elev/value	/jointset/r_shoulder/r_shoulder_elev/speed	/jointset/r_elbow/r_elbow_flex/value	/jointset/r_elbow/r_elbow_flex/speed	/forceset/TRIlong/activation	/forceset/TRIlong/fiber_length	/forceset/TRIlat/activation	/forceset/TRIlat/fiber_length	/forceset/TRImed/activation	/forceset/TRImed/fiber_length	/forceset/BIClong/activation	/forceset/BIClong/fiber_length	/forceset/BICshort/activation	/forceset/BICshort/fiber_length	/forceset/BRA/activation	/forceset/BRA/fiber_length
      0.366094	    -12.038943	     43.739054	     94.599677	    287.536928	      0.021381	      0.163771	      0.202618	      0.104473	      0.199749	      0.099538	      0.920568	      0.096308	      0.342519	      0.094984	      0.022116	      0.066955
      0.366816	    -12.007126	     44.413505	     94.807252	    287.568696	      0.021368	      0.163834	      0.203185	      0.104542	      0.200340	      0.099607	      0.922646	      0.096112	      0.336697	      0.094810	      0.022096	      0.066871
      0.367538	    -11.974821	     45.088843	     95.014842	    287.575302	      0.021355	      0.163955	      0.203703	      0.104612	      0.200880	      0.099676	      0.924642	      0.095916	      0.331029	      0.094639	      0.022076	      0.066787
      0.368260	    -11.942026	     45.774129	     95.222435	    287.575840	      0.021342	      0.164011	      0.204176	      0.104681	      0.201374	      0.099746	      0.926560	      0.095720	      0.325508	      0.094469	      0.022056	      0.066703
      0.368982	    -11.908736	     46.459661	     95.430016	    287.545818	      0.021329	      0.164123	      0.204609	      0.104751	      0.201824	      0.099816	      0.928404	      0.095525	      0.320130	      0.094301	      0.022036	      0.066619
      0.369703	    -11.874948	     47.153920	     95.637572	    287.503990	      0.021317	      0.164188	      0.205004	      0.104821	      0.202235	      0.099886	      0.930176	      0.095330	      0.314888	      0.094134	      0.022017	      0.066535
      0.369957	    -11.862974	     47.397444	     95.710385	    287.481330	      0.021312	      0.164222	      0.205134	      0.104845	      0.202371	      0.099910	      0.930782	      0.095261	      0.313081	      0.094075	      0.022010	      0.066505
      0.370074	    -11.857427	     47.510102	     95.743989	    287.470121	      0.021310	      0.164237	      0.205171	      0.104857	      0.202406	      0.099921	      0.931110	      0.095229	      0.312574	      0.094048	      0.022007	      0.066491
      0.370190	    -11.851867	     47.622893	     95.777591	    287.458406	      0.021308	      0.164252	      0.205170	      0.104868	      0.202401	      0.099933	      0.931533	      0.095198	      0.312749	      0.094021	      0.022004	      0.066478
      0.370775	    -11.823869	     48.188256	     95.945580	    287.393817	      0.021298	      0.164325	      0.205164	      0.104925	      0.202380	      0.099990	      0.933608	      0.095040	      0.313596	      0.093885	      0.021988	      0.066410
      0.371967	    -11.765721	     49.346590	     96.288171	    287.248007	      0.021278	      0.164466	      0.205151	      0.105043	      0.202339	      0.100107	      0.937639	      0.094716	      0.315170	      0.093599	      0.021957	      0.066270
      0.372489	    -11.739824	     49.853213	     96.438127	    287.178850	      0.021269	      0.164563	      0.205146	      0.105094	      0.202321	      0.100158	      0.939323	      0.094575	      0.315800	      0.093472	      0.021943	      0.066209
      0.373012	    -11.713662	     50.363709	     96.588049	    287.118458	      0.021260	      0.164606	      0.205141	      0.105145	      0.202303	      0.100210	      0.940959	      0.094433	      0.316396	      0.093344	      0.021930	      0.066148
      0.373822	    -11.672507	     51.153201	     96.820808	    287.019600	      0.021246	      0.164702	      0.205132	      0.105225	      0.202275	      0.100289	      0.943409	      0.094213	      0.317260	      0.093142	      0.021909	      0.066053
      0.374389	    -11.643376	     51.703007	     96.983365	    286.949735	      0.021237	      0.164802	      0.205127	      0.105281	      0.202257	      0.100345	      0.945057	      0.094059	      0.317821	      0.093000	      0.021895	      0.065987
